<svg width="94" height="94" viewBox="0 0 94 94" fill="none" xmlns="http://www.w3.org/2000/svg">
<circle opacity="0.1" cx="47" cy="47" r="47" fill="#FFB800"/>
<circle opacity="0.2" cx="47" cy="47.0001" r="37" fill="#FFB800"/>
<circle cx="47.0001" cy="46.9998" r="27" fill="#FFB800"/>
<mask id="mask0" mask-type="alpha" maskUnits="userSpaceOnUse" x="20" y="19" width="54" height="55">
<circle cx="47.0001" cy="46.9998" r="27" fill="#FFB800"/>
</mask>
<g mask="url(#mask0)">
<path d="M61.917 63.9051H60.4211C59.8589 65.0534 58.9871 66.0204 57.9047 66.6963C56.8223 67.3721 55.5727 67.7297 54.2978 67.7283H48.9644C47.7003 67.7297 46.4607 67.3781 45.3843 66.7128C44.3078 66.0476 43.437 65.095 42.8692 63.9615C42.3014 65.095 41.4306 66.0477 40.3541 66.7129C39.2776 67.3781 38.038 67.7297 36.7738 67.7283H31.4404C30.1649 67.7264 28.9153 67.3676 27.8318 66.6923C26.7483 66.0169 25.8739 65.0517 25.3068 63.9051H20.7736V62.3758H24.7598C24.5271 61.3669 24.5243 60.3182 24.7517 59.308C24.979 58.2979 25.4306 57.3522 26.0728 56.5416C26.7149 55.7309 27.5311 55.0762 28.4605 54.6261C29.3899 54.1761 30.4085 53.9424 31.4404 53.9424C32.4723 53.9424 33.4909 54.1761 34.4203 54.6261C35.3497 55.0762 36.1659 55.7309 36.8081 56.5416C37.4502 57.3522 37.9018 58.2979 38.1292 59.308C38.3565 60.3182 38.3537 61.3669 38.1211 62.3758H61.917C62.523 62.3751 63.104 62.1332 63.5325 61.7032C63.961 61.2731 64.2021 60.6901 64.2027 60.0819V57.0233H58.8693C58.4653 57.0229 58.0779 56.8616 57.7923 56.5749C57.5066 56.2882 57.3459 55.8995 57.3455 55.494V53.9647C57.3459 53.5592 57.5066 53.1705 57.7923 52.8838C58.0779 52.5971 58.4653 52.4358 58.8693 52.4354H64.2027V49.3768H48.2025C47.5965 49.3762 47.0155 49.1343 46.587 48.7042C46.1585 48.2742 45.9174 47.6911 45.9168 47.0829V45.1997C45.9168 45.0652 45.8815 44.933 45.8145 44.8166L42.7107 39.4365H32.9642V48.6122C32.9636 49.2204 32.7225 49.8035 32.294 50.2335C31.8655 50.6636 31.2845 50.9055 30.6785 50.9061H20.0117V49.3768H30.6785C30.8805 49.3766 31.0741 49.2959 31.217 49.1526C31.3598 49.0092 31.4402 48.8149 31.4404 48.6122V39.4365H20.0117V37.9072H41.8285L37.8584 31.0254H20.0117V29.4961H54.7687C54.4135 29.0235 53.9543 28.6396 53.427 28.3744C52.8997 28.1091 52.3184 27.9696 51.7286 27.9668H20.0117V26.4375H51.7286C52.6433 26.4405 53.542 26.6782 54.3393 27.1279C55.1367 27.5776 55.8063 28.2245 56.2845 29.007L65.3936 44.0259C65.6114 44.3851 65.7266 44.7975 65.7265 45.2179V60.0819C65.7254 61.0955 65.3236 62.0672 64.6094 62.784C63.8953 63.5007 62.927 63.9039 61.917 63.9051V63.9051ZM54.2978 66.199C55.1557 66.1996 56.001 65.9912 56.7609 65.5916C57.5208 65.192 58.1727 64.6133 58.6606 63.9051H55.0877C54.65 64.7939 54.025 65.5766 53.2561 66.199H54.2978ZM48.9644 66.199C49.8223 66.1996 50.6676 65.9912 51.4275 65.5916C52.1874 65.192 52.8393 64.6133 53.3272 63.9051H44.6016C45.0895 64.6133 45.7414 65.1921 46.5013 65.5916C47.2613 65.9912 48.1065 66.1996 48.9644 66.199V66.199ZM31.4404 55.494C30.3856 55.494 29.3544 55.8079 28.4773 56.3961C27.6003 56.9842 26.9167 57.8202 26.513 58.7982C26.1093 59.7762 26.0037 60.8525 26.2095 61.8907C26.4153 62.929 26.9232 63.8828 27.6691 64.6313C28.415 65.3799 29.3653 65.8897 30.3999 66.0962C31.4345 66.3027 32.5069 66.1967 33.4814 65.7916C34.456 65.3865 35.2889 64.7004 35.875 63.8202C36.461 62.94 36.7738 61.9051 36.7738 60.8465C36.7722 59.4274 36.2098 58.0669 35.2099 57.0635C34.2101 56.06 32.8544 55.4956 31.4404 55.494ZM35.7408 66.199H36.7738C37.6317 66.1996 38.4769 65.9912 39.2369 65.5916C39.9968 65.192 40.6487 64.6133 41.1366 63.9051H37.574C37.1338 64.7927 36.5086 65.575 35.7408 66.199V66.199ZM64.0919 44.8203L55.725 31.0254H39.6191L43.5892 37.9072H43.631V37.9796L47.1333 44.0505C47.3344 44.3999 47.4404 44.7962 47.4406 45.1997V47.0829C47.4409 47.2856 47.5212 47.48 47.6641 47.6233C47.8069 47.7666 48.0005 47.8473 48.2025 47.8476H64.2027V45.2179C64.2025 45.0777 64.1642 44.9403 64.0919 44.8203V44.8203ZM58.8693 53.9647L58.8682 55.494H64.2027V53.9647H58.8693Z" fill="#A0802D"/>
</g>
</svg>
