<svg width="19" height="19" viewBox="0 0 19 19" fill="none" xmlns="http://www.w3.org/2000/svg">
<path d="M0.358577 18.9999C0.266804 18.9999 0.175031 18.9648 0.105126 18.8949C-0.0350421 18.7547 -0.0350421 18.5281 0.105126 18.388L18.388 0.105126C18.5281 -0.0350421 18.7547 -0.0350421 18.8949 0.105126C19.035 0.245295 19.035 0.471859 18.8949 0.612027L0.612027 18.8949C0.542122 18.9648 0.45035 18.9999 0.358577 18.9999Z" fill="black"/>
<path d="M18.6414 18.9999C18.5497 18.9999 18.4579 18.9648 18.388 18.8949L0.105126 0.612027C-0.0350421 0.471859 -0.0350421 0.245295 0.105126 0.105126C0.245295 -0.0350421 0.471859 -0.0350421 0.612027 0.105126L18.8949 18.388C19.035 18.5281 19.035 18.7547 18.8949 18.8949C18.825 18.9648 18.7332 18.9999 18.6414 18.9999Z" fill="black"/>
<path d="M4.66058 0.717219H0.358731C0.160846 0.717219 0.000244141 0.556616 0.000244141 0.358731C0.000244141 0.160846 0.160846 0.000244141 0.358731 0.000244141H4.66058C4.85846 0.000244141 5.01906 0.160846 5.01906 0.358731C5.01906 0.556616 4.85846 0.717219 4.66058 0.717219Z" fill="black"/>
<path d="M0.358731 5.01906C0.160846 5.01906 0.000244141 4.85846 0.000244141 4.66058V0.358731C0.000244141 0.160846 0.160846 0.000244141 0.358731 0.000244141C0.556616 0.000244141 0.717219 0.160846 0.717219 0.358731V4.66058C0.717219 4.85846 0.556616 5.01906 0.358731 5.01906Z" fill="black"/>
<path d="M18.6414 18.9999H14.3396C14.1417 18.9999 13.9811 18.8393 13.9811 18.6414C13.9811 18.4435 14.1417 18.2829 14.3396 18.2829H18.6414C18.8393 18.2829 18.9999 18.4435 18.9999 18.6414C18.9999 18.8393 18.8393 18.9999 18.6414 18.9999Z" fill="black"/>
<path d="M18.6414 18.9999C18.4435 18.9999 18.2829 18.8393 18.2829 18.6414V14.3396C18.2829 14.1417 18.4435 13.9811 18.6414 13.9811C18.8393 13.9811 18.9999 14.1417 18.9999 14.3396V18.6414C18.9999 18.8393 18.8393 18.9999 18.6414 18.9999Z" fill="black"/>
<path d="M0.358548 18.9999C0.160663 18.9999 6.10352e-05 18.8393 6.10352e-05 18.6414V14.3396C6.10352e-05 14.1417 0.160663 13.9811 0.358548 13.9811C0.556433 13.9811 0.717035 14.1417 0.717035 14.3396V18.6414C0.717035 18.8393 0.556433 18.9999 0.358548 18.9999Z" fill="black"/>
<path d="M4.66039 18.9999H0.358548C0.160663 18.9999 6.10352e-05 18.8393 6.10352e-05 18.6414C6.10352e-05 18.4435 0.160663 18.2829 0.358548 18.2829H4.66039C4.85828 18.2829 5.01888 18.4435 5.01888 18.6414C5.01888 18.8393 4.85828 18.9999 4.66039 18.9999Z" fill="black"/>
<path d="M18.6414 5.01891C18.4435 5.01891 18.2829 4.85831 18.2829 4.66043V0.358579C18.2829 0.160694 18.4435 9.15527e-05 18.6414 9.15527e-05C18.8393 9.15527e-05 18.9999 0.160694 18.9999 0.358579V4.66043C18.9999 4.85831 18.8393 5.01891 18.6414 5.01891Z" fill="black"/>
<path d="M18.6414 0.717066H14.3396C14.1417 0.717066 13.9811 0.556464 13.9811 0.358579C13.9811 0.160694 14.1417 9.15527e-05 14.3396 9.15527e-05H18.6414C18.8393 9.15527e-05 18.9999 0.160694 18.9999 0.358579C18.9999 0.556464 18.8393 0.717066 18.6414 0.717066Z" fill="black"/>
</svg>
