<svg width="19" height="19" viewBox="0 0 19 19" fill="none" xmlns="http://www.w3.org/2000/svg">
<path d="M18.8959 0.111997C18.7874 -0.000231627 18.62 -0.0315085 18.4783 0.033621L0.214448 8.41583C0.0676309 8.48353 -0.0181045 8.63844 0.00323733 8.79888C0.0245792 8.95931 0.147847 9.08662 0.307175 9.11312L8.49914 10.486L9.43561 18.2272C9.45548 18.3884 9.57875 18.5183 9.73881 18.5455C9.75979 18.5492 9.78039 18.551 9.801 18.551C9.93898 18.551 10.0681 18.4734 10.1307 18.3464L18.9618 0.531475C19.031 0.392017 19.0045 0.223858 18.8959 0.111997ZM10.0181 16.9161L9.1968 10.1246C9.17693 9.96274 9.05293 9.83285 8.89213 9.80599L1.6094 8.58509L17.8406 1.13604L10.0181 16.9161Z" fill="black"/>
</svg>
